<svg data-name="Слой 1" viewBox="0 0 128 128" xmlns="http://www.w3.org/2000/svg"><circle cx="102" cy="53.02" r="12.98" fill="#ffffff" class="fill-000000"></circle><circle cx="26" cy="53.02" r="12.98" fill="#ffffff" class="fill-000000"></circle><path d="M34.6 79.23q-.43.61-.84 1.24A35.82 35.82 0 0 0 28 100h72a35.82 35.82 0 0 0-5.71-19.44q-.41-.63-.84-1.24a36 36 0 0 0-58.8 0ZM0 92h20.74a44 44 0 0 1 13.72-24.58A26 26 0 0 0 0 92Z" fill="#ffffff" class="fill-000000"></path><circle cx="64" cy="46.03" r="17.97" fill="#ffffff" class="fill-000000"></circle><path d="M102 66a26 26 0 0 0-8.46 1.42A44 44 0 0 1 107.26 92H128a26 26 0 0 0-26-26Z" fill="#ffffff" class="fill-000000"></path></svg>